<svg width="560" height="648" viewBox="0 0 560 648" fill="none" xmlns="http://www.w3.org/2000/svg" class="styles_hexagonBlocks__24f7R"><path d="M560 324.034V162.042L420 81.0378L280 162.042V324.034L420 405.038L560 324.034Z" fill="url(#hexagonBlocks)"></path><path d="M560 486.034V324.042L420 243.038L280 324.042V486.034L420 567.038L560 486.034Z" fill="url(#hexagonBlocks1)"></path><path d="M140 566.996V405.004L280 324L420 405.004V566.996L280 648L140 566.996Z" fill="url(#hexagonBlocks2)"></path><path d="M280.001 162.042V324.034L140.001 405.038L0.000610352 324.034V162.042L140.001 81.0381L280.001 162.042Z" fill="url(#hexagonBlocks3)"></path><path d="M0 486.034V324.042L140 243.038L280 324.042V486.034L140 567.038L0 486.034Z" fill="url(#hexagonBlocks4)"></path><path d="M140 81.0039L140 242.996L280 324L420 242.996L420 81.0039L280 0L140 81.0039Z" fill="url(#hexagonBlocks5)"></path><path d="M367 596.346V536.116L419.09 506L471.181 536.116V596.346L419.09 626.46L367 596.346Z" fill="#121214" fill-opacity="0.5" stroke="url(#hexagonBlocks6)" stroke-width="1.07346"></path><path d="M435.748 564.431L429.885 558.559L426.953 561.495L432.828 567.366L426.953 573.249L429.885 576.184L438.68 567.366L435.748 564.431Z" fill="#FFCD1E"></path><path d="M402.433 564.431L408.297 558.559L411.228 561.495L405.365 567.366L411.228 573.249L408.297 576.184L399.502 567.366L402.433 564.431Z" fill="#FFCD1E"></path><path d="M413.643 576.566L419.585 555.893H424.538L418.597 576.566H413.643Z" fill="#FFCD1E"></path><path d="M254.517 232.306C254.52 239.49 252.386 246.513 248.387 252.487C244.388 258.461 238.702 263.118 232.05 265.868C225.397 268.619 218.076 269.34 211.012 267.94C203.949 266.54 197.46 263.082 192.367 258.003C187.274 252.924 183.806 246.453 182.4 239.408C180.994 232.362 181.714 225.06 184.47 218.423C187.225 211.786 191.892 206.113 197.879 202.122C203.867 198.13 210.907 196 218.108 196C227.757 196.019 237.005 199.849 243.828 206.654C250.652 213.458 254.495 222.682 254.517 232.306Z" fill="white"></path><path d="M181.688 232.306C181.688 241.525 178.017 250.365 171.482 256.883C164.948 263.402 156.085 267.064 146.844 267.064H112V197.549H146.844C156.085 197.549 164.948 201.211 171.482 207.73C178.017 214.248 181.688 223.088 181.688 232.306Z" fill="white"></path><path d="M197.856 285.187L187.948 321.67L178.087 285.187H159.929L150.021 321.67L140.113 285.187H112.047L136.759 354.83H159.882L168.955 326.659L178.04 354.83H201.151L225.922 285.187H197.856Z" fill="white"></path><path d="M299.399 285.187V354.83H272.981V329.957H256.506V354.83H230.052V285.187H256.471V310.061H272.945V285.187H299.399Z" fill="white"></path><path d="M309.307 285.187V354.83H335.725V285.187H309.307Z" fill="white"></path><path d="M393.516 334.934V354.83H345.634V285.187H372.052V334.934H393.516Z" fill="white"></path><path d="M426.536 311.669V305.084H448V285.187H400.118V354.784H448V334.887H426.536V328.255H443.011V311.669H426.536Z" fill="white"></path><path d="M176.369 420.917V440.79H112C112 440.79 142.596 407.23 146.656 399.354C149.856 393.133 146.456 389.411 143.361 389.411C139.948 389.411 136.759 391.172 136.759 399.354L112.2 397.699C112.2 382.157 123.144 369.527 143.361 369.527C162.86 369.527 174.721 379.786 174.721 394.389C174.721 403.509 166.872 413.874 158.247 420.917H176.369Z" fill="white"></path><path d="M248.975 405.986C248.975 426.094 235.666 442.457 215.967 442.457C196.056 442.457 182.947 426.094 182.947 405.986C182.947 385.878 196.256 369.527 215.967 369.527C235.677 369.527 248.975 385.89 248.975 405.986Z" fill="white"></path><path d="M319.957 420.917V440.79H255.588C255.588 440.79 286.184 407.23 290.255 399.354C293.444 393.132 290.044 389.411 286.949 389.411C283.548 389.411 280.347 391.172 280.347 399.354L255.8 397.71C255.8 382.169 266.732 369.539 286.949 369.539C306.448 369.539 318.309 379.798 318.309 394.4C318.309 403.521 310.472 413.886 301.835 420.929L319.957 420.917Z" fill="white"></path><path d="M366.168 369.527V440.79H339.762V394.389L328.206 395.844V375.889L366.168 369.527Z" fill="white"></path><path d="M115.883 471.591C114.854 471.594 113.868 472.003 113.141 472.729C112.413 473.455 112.003 474.438 112 475.465V491.746H115.883V475.465H125.215V471.591H115.883Z" fill="white"></path><path d="M148.527 475.465C148.524 474.438 148.113 473.455 147.386 472.729C146.658 472.003 145.672 471.594 144.643 471.591H132.205C131.177 471.597 130.193 472.007 129.466 472.732C128.739 473.458 128.328 474.439 128.322 475.465V487.872C128.325 488.898 128.735 489.882 129.463 490.608C130.19 491.334 131.176 491.743 132.205 491.746H144.643C145.153 491.746 145.658 491.646 146.129 491.451C146.601 491.256 147.029 490.971 147.389 490.611C147.75 490.251 148.036 489.824 148.231 489.354C148.426 488.885 148.527 488.381 148.527 487.872V475.465ZM144.643 487.872H132.205V475.465H144.643V487.872Z" fill="white"></path><path d="M156.305 471.591C155.276 471.594 154.29 472.003 153.563 472.729C152.835 473.455 152.425 474.438 152.422 475.465V487.872C152.422 488.899 152.831 489.885 153.559 490.611C154.287 491.338 155.275 491.746 156.305 491.746L170.097 491.558V487.872H156.305V475.465H170.132V471.791L156.305 471.591Z" fill="white"></path><path d="M192.255 471.591H187.007L179.428 479.737H177.875V471.591H173.98V491.746H177.875V483.611H180.005L187.971 491.746H193.42L183.076 481.287L192.255 471.591Z" fill="white"></path><path d="M198.28 487.872V483.611L214.755 483.412V475.465C214.751 474.438 214.341 473.455 213.614 472.729C212.886 472.003 211.9 471.594 210.871 471.591H198.468C197.439 471.594 196.453 472.003 195.726 472.729C194.998 473.455 194.588 474.438 194.585 475.465V487.872C194.585 488.899 194.994 489.885 195.722 490.611C196.451 491.338 197.438 491.746 198.468 491.746L214.943 491.558V487.872H198.28ZM198.28 475.465H210.707V479.737H198.28V475.465Z" fill="white"></path><path d="M224.51 465.581H222.957L220.603 468.492V471.403H217.685V475.277H220.603V487.872C220.603 488.381 220.704 488.884 220.899 489.354C221.094 489.824 221.38 490.251 221.74 490.611C222.101 490.971 222.529 491.256 223 491.451C223.471 491.646 223.976 491.746 224.486 491.746L230.7 491.558V487.872H224.486V475.277H231.323V471.591H224.522L224.51 465.581Z" fill="white"></path><path d="M251.905 483.611C251.905 482.584 251.496 481.598 250.768 480.872C250.039 480.146 249.052 479.737 248.022 479.737H238.302V475.465H252.105V471.791L238.302 471.591C237.274 471.597 236.289 472.007 235.563 472.732C234.836 473.458 234.424 474.439 234.418 475.465V479.737C234.424 480.763 234.836 481.745 235.563 482.47C236.289 483.195 237.274 483.605 238.302 483.611H248.022V487.872H234.218V491.558L248.022 491.746C249.052 491.746 250.039 491.338 250.768 490.611C251.496 489.885 251.905 488.899 251.905 487.872V483.611Z" fill="white"></path><path d="M272.31 471.591H259.872C258.844 471.597 257.859 472.007 257.132 472.732C256.406 473.458 255.994 474.439 255.988 475.465V487.872C255.991 488.898 256.402 489.882 257.129 490.608C257.857 491.334 258.843 491.743 259.872 491.746L276.346 491.558V487.872H259.872V483.611L276.346 483.412V475.465C276.266 474.438 275.811 473.476 275.067 472.762C274.323 472.048 273.342 471.631 272.31 471.591ZM272.31 479.737H259.683V475.465H272.11V479.737H272.31Z" fill="white"></path><path d="M296.598 471.591L280.124 471.791V475.465H296.598V479.737L280.124 479.925V487.872C280.124 488.899 280.533 489.885 281.261 490.611C281.989 491.338 282.977 491.746 284.007 491.746H296.445C297.474 491.743 298.46 491.334 299.188 490.608C299.915 489.882 300.325 488.898 300.329 487.872V475.465C300.365 474.96 300.295 474.453 300.122 473.976C299.95 473.5 299.679 473.065 299.327 472.7C298.976 472.335 298.551 472.047 298.081 471.856C297.611 471.665 297.106 471.575 296.598 471.591ZM284.16 487.872V483.611H296.798V487.872H284.16Z" fill="white"></path><path d="M310.166 475.277H316.968V471.591H310.166V465.581H308.613L306.259 468.492V471.403H303.341V475.277H306.259V487.872C306.259 488.381 306.36 488.884 306.555 489.354C306.75 489.824 307.036 490.251 307.397 490.611C307.757 490.971 308.186 491.256 308.657 491.451C309.128 491.646 309.633 491.746 310.143 491.746L316.356 491.558V487.872H310.166V475.277Z" fill="white"></path><defs><linearGradient id="hexagonBlocks" x1="420" y1="88.488" x2="560.443" y2="326.956" gradientUnits="userSpaceOnUse"><stop stop-color="#8257E5"></stop><stop offset="1" stop-color="#FF008E" stop-opacity="0"></stop></linearGradient><linearGradient id="hexagonBlocks1" x1="420" y1="250.488" x2="560.443" y2="488.957" gradientUnits="userSpaceOnUse"><stop stop-color="#8257E5"></stop><stop offset="1" stop-color="#FF008E" stop-opacity="0"></stop></linearGradient><linearGradient id="hexagonBlocks2" x1="420" y1="576.1" x2="139.684" y2="407.793" gradientUnits="userSpaceOnUse"><stop stop-color="#FF008E" stop-opacity="0"></stop><stop offset="1" stop-color="#FFCD1E"></stop></linearGradient><linearGradient id="hexagonBlocks3" x1="0.000682094" y1="152.938" x2="280.317" y2="321.245" gradientUnits="userSpaceOnUse"><stop stop-color="#FF008E" stop-opacity="0"></stop><stop offset="1" stop-color="#FFCD1E"></stop></linearGradient><linearGradient id="hexagonBlocks4" x1="140" y1="250.488" x2="-0.443126" y2="488.957" gradientUnits="userSpaceOnUse"><stop stop-color="#8257E5"></stop><stop offset="1" stop-color="#FF008E" stop-opacity="0"></stop></linearGradient><linearGradient id="hexagonBlocks5" x1="280" y1="316.55" x2="139.557" y2="78.0814" gradientUnits="userSpaceOnUse"><stop stop-color="#8257E5"></stop><stop offset="1" stop-color="#FF008E" stop-opacity="0"></stop></linearGradient><linearGradient id="hexagonBlocks6" x1="368.428" y1="595.9" x2="471.496" y2="535.704" gradientUnits="userSpaceOnUse"><stop stop-color="#FF008E"></stop><stop offset="1" stop-color="#8257E5"></stop></linearGradient></defs></svg>